<svg xmlns="http://www.w3.org/2000/svg" xmlns:xlink="http://www.w3.org/1999/xlink" viewBox="0 0 136.113 97.001"><defs><style>.a{fill:none;}.b{clip-path:url(#a);}.c{fill:#138943;}.d{fill:#ff2400;}.e{fill:#fff;}</style><clipPath id="a" transform="translate(-0.444)"><rect class="a" x="19" width="100" height="97"/></clipPath></defs><g class="b"><g class="b"><path class="c" d="M96.129,35a27.553,27.553,0,1,0-55.106,0c0,11.828,17.4,44.415,27.552,62C78.731,79.414,96.129,46.826,96.129,35m-48.5,0A20.943,20.943,0,1,1,68.621,55.963h-.046A20.976,20.976,0,0,1,47.633,35" transform="translate(-0.444)"/><path class="c" d="M80.7,35A12.125,12.125,0,1,0,68.55,47.14h.025A12.145,12.145,0,0,0,80.7,35" transform="translate(-0.444)"/><path class="c" d="M119,0H78.462a36.437,36.437,0,0,1,26.484,35c0,.569-.028,1.169-.083,1.794Z" transform="translate(-0.444)"/><path class="c" d="M19,0H59.538A36.44,36.44,0,0,0,33.054,35c0,.569.029,1.169.083,1.794Z" transform="translate(-0.444)"/></g></g><path class="d" d="M136.556,46.417,10.02,80.322.444,44.583l126.536-33.9Z" transform="translate(-0.444)"/><path class="e" d="M35.405,41.427a15.125,15.125,0,0,1,3.179-.526,6.9,6.9,0,0,1,2.665.355,4.78,4.78,0,0,1,2.043,1.429A6.787,6.787,0,0,1,44.6,45.378a5.547,5.547,0,0,1,0,3.263,6.158,6.158,0,0,1-1.881,2.642,5.924,5.924,0,0,1,3.884,1.37,7.752,7.752,0,0,1,2.268,6.932,6.352,6.352,0,0,1-1.3,2.686,8.549,8.549,0,0,1-2.363,1.974,12.4,12.4,0,0,1-3.005,1.241L30.683,68.574l-6.47-24.148Zm1.952,9.953a3.854,3.854,0,0,0,2.117-1.292,2.664,2.664,0,0,0,.311-2.44,2.939,2.939,0,0,0-.672-1.306,2.316,2.316,0,0,0-1.026-.632,3.469,3.469,0,0,0-1.262-.114,7.747,7.747,0,0,0-1.381.243l-4.9,1.312L32.061,52.8ZM40.4,61.547A7.194,7.194,0,0,0,41.828,61a3.7,3.7,0,0,0,1.1-.837,2.635,2.635,0,0,0,.591-1.192,3.488,3.488,0,0,0-.1-1.641,3.254,3.254,0,0,0-1.744-2.377,4.511,4.511,0,0,0-2.944-.064l-5.7,1.527,1.776,6.628Zm25.044-28.17,1.2,4.464L54.087,41.206l1.387,5.175L67,43.293l1.1,4.126L56.579,50.506l1.586,5.919,12.824-3.436,1.2,4.465L54.132,62.291,47.661,38.143Zm3.129,3.947-1.2-4.465,19.485-5.221,1.2,4.465-7.128,1.91L86.207,53.7l-5.229,1.4L75.7,35.414ZM98.389,24.55l15.364,21.765-5.429,1.455-3.24-4.9-8.893,2.383-.425,5.877L90.5,52.545l2.523-26.558Zm4.269,14.733-5.372-8.057-.066.017L96.5,40.934Z" transform="translate(-0.444)"/></svg>