<svg id="Layer_1" data-name="Layer 1" xmlns="http://www.w3.org/2000/svg" xmlns:xlink="http://www.w3.org/1999/xlink" viewBox="0 0 100 96.687"><defs><style>.cls-1{fill:none;}.cls-2{clip-path:url(#clip-path);}.cls-3{fill:#138943;}</style><clipPath id="clip-path" transform="translate(0 -2)"><rect class="cls-1" y="2" width="100" height="96.687"/></clipPath></defs><g id="VertiGIS_Pin" data-name="VertiGIS Pin"><g class="cls-2"><g class="cls-2"><path class="cls-3" d="M77.129,36.888a27.553,27.553,0,0,0-55.106,0c0,11.79,17.4,44.272,27.552,61.8,10.156-17.53,27.554-50.013,27.554-61.8m-48.5,0A20.943,20.943,0,1,1,49.575,57.782,20.942,20.942,0,0,1,28.633,36.888" transform="translate(0 -2)"/><path class="cls-3" d="M61.7,36.888a12.125,12.125,0,1,0-12.125,12.1A12.125,12.125,0,0,0,61.7,36.888" transform="translate(0 -2)"/><path class="cls-3" d="M100,2H59.462A36.338,36.338,0,0,1,85.946,36.888c0,.567-.028,1.165-.083,1.788Z" transform="translate(0 -2)"/><path class="cls-3" d="M0,2H40.538A36.339,36.339,0,0,0,14.054,36.888c0,.567.029,1.165.083,1.788Z" transform="translate(0 -2)"/></g></g></g></svg>