<svg xmlns="http://www.w3.org/2000/svg" xmlns:xlink="http://www.w3.org/1999/xlink" viewBox="0 0 356.812 96.688"><defs><style>.a{fill:none;}.b{clip-path:url(#a);}.c{fill:#138943;}.d{fill:#ff3000;}.e{fill:#fff;}</style><clipPath id="a" transform="translate(0 0.765)"><rect class="a" y="-0.765" width="100" height="96.687"/></clipPath></defs><g class="b"><g class="b"><path class="c" d="M77.129,34.123a27.553,27.553,0,0,0-55.106,0c0,11.79,17.4,44.272,27.552,61.8,10.156-17.53,27.554-50.013,27.554-61.8m-48.5,0A20.943,20.943,0,1,1,49.621,55.017h-.046A20.941,20.941,0,0,1,28.633,34.123" transform="translate(0 0.765)"/><path class="c" d="M61.7,34.123a12.125,12.125,0,1,0-12.15,12.1h.025A12.125,12.125,0,0,0,61.7,34.123" transform="translate(0 0.765)"/><path class="c" d="M100-.765H59.462A36.339,36.339,0,0,1,85.946,34.123c0,.567-.028,1.165-.083,1.788Z" transform="translate(0 0.765)"/><path class="c" d="M0-.765H40.538A36.34,36.34,0,0,0,14.054,34.123c0,.567.029,1.165.083,1.788Z" transform="translate(0 0.765)"/></g></g><rect class="d" x="108.445" y="8.611" width="248.366" height="78.385" rx="12"/><path class="e" d="M136.781,58.461V35.617c0-5.729,0-5.729-7.949-5.729V23.3h24.992c13.821,0,20.838,3.652,20.838,12.46,0,5.155-2.506,9.524-8.45,10.239,5.944.932,10.1,5.014,10.1,11.459,0,8.378-6.516,13.319-22.485,13.319H128.832V64.189C136.781,64.189,136.781,64.189,136.781,58.461Zm17.043-15.612c5.872,0,8.593-2.22,8.593-6.445,0-4.081-2-6.516-10.025-6.516h-4.368V42.849Zm0,21.34c5.657,0,10.169-1.289,10.169-7.3,0-6.087-4.512-7.519-10.169-7.519h-5.8V64.189Z" transform="translate(0 0.765)"/><path class="e" d="M181.463,64.189c7.948,0,7.948,0,7.948-5.728V35.617c0-5.729,0-5.729-7.733-5.729V23.3h47.191V42.92h-7.233c0-13.1,0-13.1-6.875-13.1H200.8v13.1l.788-.071c6.66,0,6.66,0,6.66-7.089H214.4V57.314h-6.159c0-8.163,0-7.877-7.448-7.877V64.189h13.964c6.875,0,6.875.072,6.875-13.391h7.233V70.777H181.463Z" transform="translate(0 0.765)"/><path class="e" d="M265.674,29.673h-2.148V58.461c0,5.728,0,5.728,7.949,5.728v6.588H244.263V64.189c7.949,0,7.949,0,7.949-5.728V29.673H250.35c-8.092,0-8.092.716-8.092,13.391h-6.8V23.3h44.828V43.064h-6.8C273.48,30.6,273.121,29.673,265.674,29.673Z" transform="translate(0 0.765)"/><path class="e" d="M328.118,58.031c2.291,5.729,3.079,6.23,8.306,6.23v6.516H309.857V64.261c7.232,0,7.948-.716,6.229-5.084l-1.36-3.438H298.4l-1.432,3.509c-1.432,3.724-1.218,5.013,6.659,5.013v6.516H280.711V64.261c5.658,0,6.66-1.217,8.737-6.159l8.808-21.555c2.721-6.588,2.577-6.659-5.586-6.659V23.3h21.269Zm-27.5-8.235H312.65l-6.087-15.468Z" transform="translate(0 0.765)"/></svg>