<svg enable-background="new 0 0 380 100" viewBox="0 0 380 100" xmlns="http://www.w3.org/2000/svg"><path d="m54.3505 98.3806h-54.3185v-96.7612h52.1592v13.6302h-36.0998v27.3954h33.2659v13.5622h-33.2659v28.61h38.2591z" fill="#46413e"/><path d="m87.5489 63.2928v35.0877h-15.992v-96.7611h29.3522c11.1104 0 19.7247 2.5868 25.844 7.7603 6.1171 5.1735 9.1768 12.461 9.1768 21.8623s-3.1957 17.0947-9.5827 23.0758c-6.387 5.9833-15.024 8.9749-25.9109 8.9749h-12.8874zm0-48.448v35.3576h10.3914c6.8826 0 12.122-1.5957 15.7215-4.7914 3.5995-3.1935 5.3981-7.6912 5.3981-13.4953 0-11.3792-6.6116-17.071-19.837-17.071h-11.674z" fill="#46413e"/><path d="m168.7904 98.3806h-16.5323v-96.7612h16.5323z" fill="#46413e"/><path d="m260.0865 94.332c-7.2875 3.7787-16.352 5.668-27.1935 5.668-14.0351 0-25.2804-4.4297-33.7382-13.2934-8.4577-8.8615-12.6856-20.4891-12.6856-34.8848 0-15.4742 4.7568-27.9795 14.2726-37.5169 9.5137-9.5362 21.5342-14.3049 36.0659-14.3049 9.356 0 17.1163 1.3279 23.2788 3.9816v15.9244c-6.5231-3.8694-13.7198-5.804-21.5925-5.804-10.481 0-18.9733 3.3522-25.4726 10.0545-6.5015 6.7034-9.749 15.6545-9.749 26.8556 0 10.6613 3.0359 19.1525 9.1077 25.4726 6.074 6.3201 14.0588 9.4802 23.9547 9.4802 9.1314 0 17.0494-2.1592 23.7517-6.4777z" fill="#46413e"/><g fill="#178944"><path d="m280.7603 19.9247v-18.6137h9.0732v1.5836h-7.3468v6.8276h6.8017v1.5576h-6.8017v7.0742h7.7622v1.5706h-9.4886z"/><path d="m300.049 1.8172c-.3721-.2423-.8524-.3634-1.4408-.3634-1.5576 0-2.3365 1.0168-2.3365 3.0504v2.1288h3.31v1.4538h-3.31v11.838h-1.6615v-11.8381h-2.3235v-1.4538h2.3235v-2.2326c0-.6663.0844-1.2699.2531-1.8107s.4175-1.0038.7464-1.3889c.3288-.3851.742-.6815 1.2396-.8891.4977-.2078 1.071-.3116 1.72-.3116.623 0 1.1163.0822 1.4797.2466z"/><path d="m307.8761 1.8172c-.3721-.2423-.8524-.3634-1.4408-.3634-1.5576 0-2.3365 1.0168-2.3365 3.0504v2.1288h3.31v1.4538h-3.31v11.838h-1.6615v-11.8381h-2.3235v-1.4538h2.3235v-2.2326c0-.6663.0844-1.2699.2531-1.8107.1688-.5408.4175-1.0038.7464-1.3889s.742-.6815 1.2396-.8891 1.0709-.3116 1.72-.3116c.623 0 1.1163.0822 1.4798.2466v1.5706z"/><path d="m310.3034 13.5774c.0086.8134.1168 1.5447.3245 2.1937s.5062 1.1985.8956 1.6485.8632.794 1.4214 1.0319c.5581.238 1.1877.357 1.8886.357 1.4971 0 2.9119-.5235 4.2446-1.5706v1.6355c-1.2721.9086-2.8124 1.3629-4.621 1.3629-.8913 0-1.7004-.1558-2.4273-.4673s-1.3456-.7637-1.8562-1.3564-.9043-1.3218-1.1812-2.1872-.4154-1.8519-.4154-2.9595c0-.9952.1514-1.9168.4543-2.7648s.7226-1.5814 1.2591-2.2002c.5365-.6187 1.1726-1.1033 1.9081-1.4538s1.5403-.5257 2.4143-.5257c.8567 0 1.6139.1493 2.2715.4478.6577.2985 1.2093.7247 1.655 1.2786.4457.5538.7853 1.2288 1.019 2.0249.2336.7961.3505 1.6874.3505 2.6739v.8307h-9.6054zm7.892-1.4538c-.026-1.3846-.3548-2.4576-.9865-3.2191s-1.51-1.1423-2.635-1.1423c-.5625 0-1.0839.0995-1.5641.2985-.4803.199-.9021.4868-1.2656.8632-.3634.3764-.6642.8351-.9021 1.3759-.238.5408-.4045 1.1488-.4997 1.8237h7.853z"/><path d="m332.0064 19.3276c-.9865.5971-2.1807.9043-3.5826.9216-.9519.0087-1.8086-.1558-2.5701-.4933s-1.4105-.8069-1.9471-1.4084c-.5365-.6014-.9475-1.311-1.2331-2.1288s-.4283-1.7069-.4283-2.6674c0-.9952.1514-1.9319.4543-2.8102s.7442-1.6442 1.324-2.2975 1.2894-1.1704 2.1288-1.5511 1.7999-.5711 2.8816-.5711c1.099 0 2.1028.212 3.0114.636v1.7653c-.9692-.6404-2.0163-.9605-3.1412-.9605-.7874 0-1.4884.1493-2.1028.4478s-1.1315.7053-1.5511 1.2201c-.4197.5149-.7399 1.1163-.9605 1.8043s-.331 1.417-.331 2.1872c0 .7096.093 1.3889.2791 2.0379s.4716 1.2223.8567 1.7199.8718.8935 1.4603 1.1877c.5884.2942 1.2807.4413 2.0768.4413 1.2461 0 2.3711-.3721 3.3749-1.1163v1.6355z"/><path d="m340.9109 19.769c-.5711.2856-1.1942.4283-1.8692.4283-2.1461 0-3.2191-1.2375-3.2191-3.7124v-8.3982h-2.3365v-1.4538h2.3365v-3.3489l1.6615-.5452v3.8941h3.4268v1.4538h-3.4268v8.1386c0 .9.1471 1.549.4413 1.947s.7918.5971 1.4927.5971c.5192 0 1.0168-.1558 1.4927-.4673v1.4669z"/><path d="m344.4675 3.271c-.3202 0-.5971-.1125-.8307-.3375s-.3505-.5106-.3505-.8567c0-.3375.1168-.6166.3505-.8372s.5106-.331.8307-.331c.1644 0 .3202.0281.4673.0844.1471.0562.2747.1363.3829.2401s.1947.2272.2596.3699c.0649.1428.0974.3007.0974.4738 0 .1644-.0303.3202-.0909.4673s-.1471.2747-.2596.3829-.2401.1925-.3829.2531-.3007.0909-.4738.0909zm-.8178 16.6537v-13.2918h1.6615v13.2918z"/><path d="m354.3325 19.9247h-1.5836l-5.0883-13.2918h1.8302l3.6734 10.1246c.225.6144.3678 1.1552.4283 1.6225h.0519c.1038-.6231.2379-1.1466.4024-1.5706l3.8032-10.1765h1.7783z"/><path d="m362.6139 13.5774c.0086.8134.1168 1.5447.3245 2.1937s.5062 1.1985.8957 1.6485c.3894.45.8632.794 1.4213 1.0319.5581.238 1.1877.357 1.8886.357 1.497 0 2.9119-.5235 4.2445-1.5706v1.6355c-1.2721.9086-2.8124 1.3629-4.621 1.3629-.8913 0-1.7004-.1558-2.4273-.4673s-1.3456-.7637-1.8562-1.3564-.9043-1.3218-1.1812-2.1872-.4154-1.8519-.4154-2.9595c0-.9952.1514-1.9168.4543-2.7648s.7226-1.5814 1.2591-2.2002c.5365-.6187 1.1726-1.1033 1.9081-1.4538.7356-.3505 1.5403-.5257 2.4143-.5257.8567 0 1.6139.1493 2.2715.4478.6577.2985 1.2093.7247 1.655 1.2786.4457.5538.7853 1.2288 1.019 2.0249.2336.7961.3505 1.6874.3505 2.6739v.8307h-9.6053zm7.892-1.4538c-.026-1.3846-.3548-2.4576-.9865-3.2191s-1.51-1.1423-2.635-1.1423c-.5625 0-1.0839.0995-1.5641.2985-.4803.199-.9021.4868-1.2656.8632-.3634.3764-.6642.8351-.9021 1.3759-.238.5408-.4045 1.1488-.4997 1.8237h7.853z"/><path d="m282.4867 39.2653v7.243h-1.7263v-18.6137h4.8027c.9779 0 1.8432.1211 2.5961.3634s1.3889.5928 1.9081 1.0514.9129 1.0211 1.1812 1.6874.4024 1.4278.4024 2.2845c0 .8653-.1515 1.6636-.4543 2.3949-.3029.7312-.7377 1.3629-1.3045 1.8951s-1.2569.9476-2.0704 1.2461c-.8134.2985-1.735.4478-2.7648.4478h-2.5702zm0-9.7871v8.2035h2.4663c1.6009 0 2.8167-.3721 3.6474-1.1163s1.2461-1.7956 1.2461-3.1542c0-2.622-1.5317-3.933-4.595-3.933z"/><path d="m299.6077 46.8198c-.9865 0-1.8713-.1644-2.6545-.4933s-1.4516-.794-2.0055-1.3954c-.5538-.6014-.9778-1.3218-1.2721-2.1612s-.4413-1.7696-.4413-2.7908c0-1.1077.1558-2.0985.4673-2.9725s.755-1.616 1.3305-2.2261 1.2699-1.0752 2.0833-1.3954 1.722-.4803 2.7259-.4803c.9605 0 1.8259.1579 2.596.4738s1.4235.7723 1.96 1.3694.9476 1.324 1.2331 2.1807c.2856.8567.4283 1.8302.4283 2.9206 0 1.0384-.1493 1.9838-.4478 2.8362s-.7247 1.5858-1.2786 2.2002c-.5538.6144-1.2288 1.0903-2.0249 1.4278-.796.3376-1.6959.5063-2.6997.5063zm.1298-12.474c-.7269 0-1.3846.1255-1.973.3764-.5884.251-1.0925.6166-1.5122 1.0968-.4197.4803-.742 1.0687-.967 1.7653s-.3375 1.4862-.3375 2.3689c0 .8307.1125 1.5793.3375 2.2456s.543 1.2375.9541 1.7134c.411.4759.9108.8416 1.4992 1.0968s1.2461.3829 1.973.3829c.7442 0 1.4019-.1233 1.973-.3699s1.0557-.6057 1.4538-1.0774c.3981-.4716.6988-1.0492.9021-1.7329.2034-.6836.3051-1.4624.3051-2.3364 0-1.7913-.3981-3.1607-1.1942-4.1083-.7962-.9474-1.9342-1.4212-3.4139-1.4212z"/><path d="m309.4078 46.5083v-19.6781h1.6615v19.6781z"/><path d="m316.1705 29.8546c-.3202 0-.5971-.1125-.8307-.3375s-.3505-.5106-.3505-.8567c0-.3375.1168-.6166.3505-.8372.2336-.2207.5106-.331.8307-.331.1644 0 .3202.0281.4673.0844.1471.0562.2747.1363.3829.2401s.1947.2272.2596.3699c.0649.1428.0974.3007.0974.4738 0 .1644-.0303.3202-.0909.4673s-.1471.2747-.2596.3829-.2401.1925-.3829.2531-.3007.0909-.4738.0909zm-.8177 16.6537v-13.2918h1.6615v13.2918z"/><path d="m320.5449 44.1199c.2509.199.5235.3764.8177.5322s.5971.2899.9086.4024.6252.1969.9411.2531.6165.0844.9021.0844c1.973 0 2.9595-.7399 2.9595-2.2196 0-.3375-.0692-.6295-.2077-.8762-.1385-.2466-.3375-.4716-.5971-.675s-.5711-.3916-.9346-.5646c-.3635-.1731-.7745-.3548-1.2332-.5452-.6144-.2509-1.1422-.5062-1.5836-.7658-.4413-.2596-.8048-.543-1.0903-.8502-.2856-.3072-.4976-.6447-.636-1.0125-.1385-.3678-.2077-.7853-.2077-1.2526 0-.5884.1276-1.112.3829-1.5706s.5993-.848 1.032-1.1682.9324-.5646 1.4992-.7334 1.1617-.2531 1.7848-.2531c1.1509 0 2.1547.2163 3.0114.649v1.7523c-.9951-.6404-2.0682-.9605-3.2191-.9605-.4154 0-.794.0519-1.1358.1558-.3418.1038-.6339.251-.8762.4413-.2423.1904-.4305.4175-.5646.6815s-.2012.556-.2012.8762c0 .3288.0519.6166.1558.8632.1038.2466.2661.4695.4868.6685.2206.199.5062.3894.8567.5711s.7766.3764 1.2786.5841c.6404.2596 1.1942.517 1.6615.7723s.8524.5322 1.1552.8307c.3029.2985.5279.6317.675.9995s.2206.794.2206 1.2786c0 .5971-.1233 1.1293-.3699 1.5966s-.5884.861-1.0254 1.1812-.9497.5625-1.5382.7269-1.2288.2466-1.9211.2466c-1.3413 0-2.4706-.2812-3.3878-.8437z"/><path d="m341.0667 46.5083v-7.8141c0-1.4884-.2683-2.5852-.8048-3.2905s-1.3716-1.0579-2.5052-1.0579c-.5365 0-1.0471.1082-1.5316.3245-.4846.2163-.9086.5279-1.2721.9346s-.6534.9021-.8697 1.4862-.3245 1.2439-.3245 1.9795v7.4377h-1.6615v-19.6781h1.6615v8.6838h.0519c1.0384-1.7394 2.5268-2.609 4.4652-2.609 1.4797 0 2.5917.4543 3.3359 1.3629s1.1163 2.2499 1.1163 4.0239v8.2165z"/><path d="m347.5179 40.161c.0087.8134.1168 1.5447.3245 2.1937s.5062 1.1985.8956 1.6485.8632.794 1.4213 1.0319c.5582.238 1.1877.357 1.8886.357 1.4971 0 2.9119-.5235 4.2445-1.5706v1.6355c-1.2721.9086-2.8124 1.3629-4.621 1.3629-.8913 0-1.7004-.1558-2.4273-.4673s-1.3456-.7637-1.8562-1.3564-.9043-1.3218-1.1812-2.1872c-.2769-.8653-.4154-1.8519-.4154-2.9595 0-.9952.1515-1.9168.4543-2.7648.3029-.848.7226-1.5814 1.2591-2.2002s1.1725-1.1033 1.9081-1.4538c.7355-.3505 1.5403-.5257 2.4143-.5257.8567 0 1.6139.1493 2.2715.4478.6577.2985 1.2094.7247 1.655 1.2786s.7853 1.2288 1.019 2.0249c.2336.7961.3505 1.6874.3505 2.6739v.8307h-9.6052zm7.892-1.4538c-.0259-1.3846-.3548-2.4576-.9865-3.2191s-1.51-1.1423-2.635-1.1423c-.5625 0-1.0838.0995-1.5641.2985s-.9021.4868-1.2656.8632-.6642.8351-.9021 1.3759-.4046 1.1488-.4998 1.8237h7.8531z"/><path d="m369.7011 46.5083v-2.3364h-.0519c-.4413.8394-1.0709 1.4906-1.8886 1.9535s-1.7458.6944-2.7843.6944c-.8307 0-1.5858-.1536-2.265-.4608-.6793-.3072-1.2613-.7507-1.7458-1.3305s-.8589-1.2807-1.1228-2.1028-.3959-1.7523-.3959-2.7908c0-1.073.145-2.053.4348-2.94.2899-.887.7009-1.6485 1.2331-2.2845s1.1725-1.1293 1.9211-1.4797c.7485-.3505 1.5815-.5257 2.4987-.5257 1.9124 0 3.284.7658 4.1147 2.2975h.0519v-8.3723h1.6615v19.6781zm0-8.0218c0-.5798-.0995-1.1206-.2986-1.6225s-.4759-.9389-.8307-1.311-.781-.6663-1.2786-.8827c-.4976-.2163-1.0449-.3245-1.642-.3245-.6577 0-1.2634.1298-1.8172.3894s-1.0276.6339-1.4214 1.1228c-.3937.4889-.7009 1.0839-.9216 1.7848s-.331 1.4971-.331 2.3884c0 .8394.0995 1.5922.2986 2.2586s.4824 1.2288.8502 1.6874.8069.8091 1.3175 1.0514 1.0774.3634 1.7004.3634c.675 0 1.2829-.1212 1.8237-.3634.5409-.2423.9995-.5755 1.3759-.9995s.6663-.9216.8697-1.4927c.2033-.5711.305-1.1812.305-1.8302v-2.2197z"/><path d="m282.4867 73.0919h-1.7263v-18.6137h1.7263z"/><path d="m296.0251 73.0919v-7.6584c0-3.0028-1.0903-4.5042-3.271-4.5042-.5798 0-1.1163.1147-1.6095.344-.4933.2293-.9194.5473-1.2786.954s-.6404.8891-.8437 1.4473-.3051 1.1617-.3051 1.8107v7.6064h-1.6615v-13.2916h1.6615v2.3105h.0519c.9865-1.748 2.4706-2.622 4.4522-2.622 1.4538 0 2.5614.4716 3.3229 1.4148s1.1423 2.3062 1.1423 4.0888v8.0997z"/><path d="m310.5241 72.4948c-.9865.5971-2.1807.9043-3.5826.9216-.9519.0087-1.8086-.1558-2.5701-.4932-.7615-.3375-1.4105-.8069-1.947-1.4084-.5365-.6014-.9476-1.311-1.2331-2.1288-.2856-.8178-.4283-1.7069-.4283-2.6674 0-.9952.1514-1.9319.4543-2.8102s.7442-1.6442 1.324-2.2975 1.2894-1.1704 2.1288-1.5511c.8394-.3808 1.7999-.5711 2.8816-.5711 1.099 0 2.1028.212 3.0114.636v1.7653c-.9692-.6404-2.0163-.9605-3.1412-.9605-.7875 0-1.4884.1493-2.1028.4478s-1.1314.7053-1.5511 1.2201c-.4197.5149-.7399 1.1163-.9605 1.8043s-.331 1.417-.331 2.1872c0 .7096.093 1.3889.2791 2.0379.186.649.4716 1.2223.8567 1.7199s.8719.8935 1.4603 1.1877 1.2807.4413 2.0768.4413c1.2461 0 2.3711-.3721 3.3748-1.1163v1.6354z"/><path d="m313.7172 73.0919v-19.6781h1.6615v19.6781z"/><path d="m328.359 73.0919v-2.2586h-.0519c-.9 1.7134-2.2975 2.5701-4.1926 2.5701-3.1585 0-4.7378-1.9297-4.7378-5.7892v-7.8141h1.6615v7.5026c0 1.5922.2834 2.7691.8502 3.5306s1.4343 1.1423 2.6026 1.1423c.5711 0 1.0925-.1103 1.5641-.331s.8783-.5322 1.2201-.9346.6079-.8848.7983-1.4473.2856-1.1855.2856-1.8692v-7.5935h1.6615v13.2918h-1.6616z"/><path d="m333.5511 70.7035c.2509.199.5235.3764.8177.5322s.5971.2899.9086.4024.6252.1969.9411.2531.6166.0844.9021.0844c1.973 0 2.9595-.7399 2.9595-2.2196 0-.3375-.0692-.6295-.2077-.8762-.1385-.2466-.3375-.4716-.5971-.675s-.5711-.3916-.9346-.5646c-.3635-.1731-.7745-.3548-1.2331-.5452-.6144-.251-1.1423-.5062-1.5836-.7658s-.8047-.543-1.0903-.8502-.4976-.6447-.636-1.0125c-.1385-.3678-.2077-.7853-.2077-1.2526 0-.5884.1277-1.112.3829-1.5706s.5992-.848 1.0319-1.1682.9324-.5646 1.4992-.7334 1.1617-.2531 1.7848-.2531c1.1509 0 2.1547.2163 3.0114.649v1.7523c-.9952-.6404-2.0682-.9605-3.2191-.9605-.4154 0-.794.0519-1.1358.1558-.3418.1038-.6339.2509-.8762.4413s-.4305.4175-.5647.6815c-.1341.2639-.2012.556-.2012.8762 0 .3288.0519.6166.1558.8632.1038.2466.2661.4695.4868.6685s.5062.3894.8567.5711.7767.3764 1.2786.5841c.6404.2596 1.1942.5171 1.6615.7723.4673.2553.8524.5322 1.1552.8307.3029.2985.5279.6317.675.9995s.2206.794.2206 1.2786c0 .5971-.1233 1.1293-.3699 1.5966s-.5884.861-1.0254 1.1812-.9497.5625-1.5382.7269c-.5884.1644-1.2288.2466-1.9211.2466-1.3413 0-2.4706-.2812-3.3878-.8437v-1.8563z"/><path d="m345.9213 56.4382c-.3202 0-.5971-.1125-.8307-.3375s-.3505-.5106-.3505-.8567c0-.3375.1168-.6166.3505-.8372s.5106-.331.8307-.331c.1644 0 .3202.0281.4673.0844.1471.0562.2747.1363.3829.2401s.1947.2272.2596.3699c.0649.1428.0974.3007.0974.4738 0 .1644-.0303.3202-.0909.4673s-.1471.2747-.2596.3829-.2401.1925-.3829.2531-.3007.0909-.4738.0909zm-.8178 16.6537v-13.2918h1.6615v13.2918z"/><path d="m355.7863 73.0919h-1.5836l-5.0883-13.2918h1.8302l3.6734 10.1246c.225.6144.3678 1.1552.4283 1.6225h.0519c.1039-.6231.238-1.1466.4024-1.5706l3.8032-10.1765h1.7783z"/><path d="m364.0677 66.7445c.0086.8134.1168 1.5447.3245 2.1937s.5062 1.1985.8956 1.6485.8632.794 1.4214 1.0319c.5581.238 1.1877.357 1.8886.357 1.4971 0 2.9119-.5235 4.2446-1.5706v1.6355c-1.2721.9086-2.8124 1.3629-4.621 1.3629-.8913 0-1.7004-.1558-2.4273-.4673s-1.3456-.7637-1.8562-1.3564-.9043-1.3218-1.1812-2.1872-.4153-1.8519-.4153-2.9595c0-.9952.1514-1.9168.4543-2.7648s.7226-1.5814 1.2591-2.2002c.5365-.6187 1.1725-1.1033 1.9081-1.4538.7355-.3505 1.5403-.5257 2.4143-.5257.8567 0 1.6139.1493 2.2715.4478.6577.2985 1.2093.7247 1.655 1.2786s.7853 1.2288 1.019 2.0249c.2336.7961.3505 1.6874.3505 2.6739v.8307h-9.6055zm7.892-1.4537c-.026-1.3846-.3548-2.4576-.9865-3.2191s-1.51-1.1423-2.635-1.1423c-.5625 0-1.0839.0995-1.5641.2985-.4803.199-.9021.4868-1.2656.8632s-.6642.8351-.9021 1.3759-.4045 1.1488-.4997 1.8237h7.853z"/><path d="m293.3766 98.9875c-1.4365.675-3.0763 1.0125-4.9195 1.0125-1.3153 0-2.5095-.2315-3.5826-.6944-1.0731-.463-1.9882-1.1055-2.7453-1.9276-.7572-.8221-1.3413-1.7999-1.7523-2.9335s-.6165-2.3711-.6165-3.7124c0-1.4105.2185-2.7237.6555-3.9395s1.0622-2.2715 1.8756-3.1672c.8134-.8956 1.7978-1.5987 2.953-2.1093s2.4511-.7658 3.8876-.7658c1.5836 0 2.9984.2423 4.2446.7269v1.8432c-1.3326-.6663-2.7562-.9995-4.2705-.9995-1.2029 0-2.2715.2077-3.2061.6231s-1.722.993-2.3624 1.7329-1.1293 1.6139-1.4668 2.622-.5063 2.1093-.5063 3.3035c0 1.073.1515 2.0833.4543 3.0309.3029.9476.7507 1.7761 1.3435 2.4857.5927.7096 1.3305 1.2721 2.2131 1.6874s1.9081.6231 3.0763.6231c1.7913 0 3.3662-.3764 4.7248-1.1293z"/><path d="m302.5147 99.987c-.9865 0-1.8713-.1644-2.6544-.4933s-1.4516-.794-2.0055-1.3954-.9778-1.3218-1.2721-2.1612c-.2942-.8394-.4413-1.7696-.4413-2.7908 0-1.1077.1558-2.0985.4673-2.9725s.755-1.616 1.3305-2.2261c.5754-.6101 1.2699-1.0752 2.0833-1.3954s1.7221-.4803 2.7259-.4803c.9605 0 1.8259.1579 2.5961.4738.7701.3158 1.4235.7723 1.96 1.3694s.9475 1.324 1.2331 2.1807.4283 1.8302.4283 2.9206c0 1.0384-.1493 1.9838-.4478 2.8362s-.7247 1.5858-1.2786 2.2002c-.5538.6144-1.2288 1.0903-2.0249 1.4278-.7961.3376-1.696.5063-2.6999.5063zm.1299-12.474c-.7269 0-1.3846.1255-1.973.3764-.5884.251-1.0925.6166-1.5122 1.0968-.4197.4803-.742 1.0687-.967 1.7653s-.3375 1.4862-.3375 2.3689c0 .8307.1125 1.5793.3375 2.2456s.543 1.2374.954 1.7134.9108.8416 1.4992 1.0968 1.2461.3829 1.973.3829c.7442 0 1.4019-.1233 1.973-.3699s1.0557-.6058 1.4538-1.0774.6988-1.0492.9021-1.7329c.2034-.6836.305-1.4624.305-2.3364 0-1.7913-.398-3.1607-1.1942-4.1083-.7961-.9474-1.934-1.4212-3.4137-1.4212z"/><path d="m321.2842 99.6755v-7.8141c0-1.4884-.2682-2.5852-.8048-3.2905-.5365-.7053-1.3716-1.0579-2.5052-1.0579-.5365 0-1.0471.1082-1.5317.3245s-.9086.5279-1.2721.9346c-.3634.4067-.6533.9021-.8697 1.4862s-.3245 1.2439-.3245 1.9795v7.4377h-1.6615v-19.6781h1.6615v8.6838h.0519c1.0384-1.7394 2.5268-2.609 4.4652-2.609 1.4797 0 2.5917.4543 3.3359 1.3629s1.1163 2.2499 1.1163 4.0239v8.2165z"/><path d="m327.7354 93.3281c.0086.8134.1168 1.5447.3245 2.1937s.5063 1.1985.8957 1.6485.8632.794 1.4213 1.0319c.5582.238 1.1877.357 1.8886.357 1.497 0 2.9119-.5235 4.2445-1.5706v1.6355c-1.2721.9086-2.8124 1.3629-4.621 1.3629-.8913 0-1.7004-.1558-2.4273-.4673s-1.3456-.7637-1.8562-1.3564-.9043-1.3218-1.1812-2.1872-.4154-1.8519-.4154-2.9595c0-.9952.1514-1.9168.4543-2.7648s.7226-1.5814 1.2591-2.2002c.5365-.6187 1.1725-1.1033 1.9081-1.4538s1.5403-.5257 2.4143-.5257c.8567 0 1.6139.1493 2.2715.4478s1.2093.7247 1.655 1.2786c.4456.5538.7853 1.2288 1.019 2.0249.2336.7961.3505 1.6874.3505 2.6739v.8307h-9.6053zm7.892-1.4537c-.026-1.3846-.3548-2.4576-.9865-3.2191s-1.51-1.1423-2.635-1.1423c-.5625 0-1.0839.0995-1.5641.2985-.4803.199-.9021.4868-1.2656.8632-.3634.3764-.6642.8351-.9021 1.3759s-.4045 1.1488-.4997 1.8237h7.853z"/><path d="m339.846 97.2871c.2509.199.5235.3764.8177.5322s.5971.2899.9086.4024.6252.1969.9411.2531c.3159.0563.6165.0844.9021.0844 1.973 0 2.9595-.7399 2.9595-2.2196 0-.3375-.0692-.6295-.2077-.8762-.1385-.2466-.3375-.4716-.5971-.675s-.5711-.3916-.9346-.5646c-.3634-.1731-.7745-.3548-1.2331-.5452-.6144-.251-1.1422-.5062-1.5836-.7658-.4413-.2596-.8048-.543-1.0903-.8502-.2856-.3072-.4976-.6447-.636-1.0125s-.2077-.7853-.2077-1.2526c0-.5884.1276-1.112.3829-1.5706s.5993-.848 1.032-1.1682.9324-.5646 1.4992-.7334c.5668-.1687 1.1617-.2531 1.7848-.2531 1.1509 0 2.1547.2163 3.0114.649v1.7523c-.9951-.6404-2.0682-.9605-3.2191-.9605-.4154 0-.794.0519-1.1358.1558-.3418.1038-.6339.2509-.8762.4413s-.4305.4175-.5646.6815-.2012.556-.2012.8762c0 .3288.0519.6166.1558.8632s.2661.4695.4868.6685c.2206.199.5062.3894.8567.5711s.7766.3764 1.2786.5841c.6404.2596 1.1942.517 1.6615.7723s.8524.5322 1.1552.8307c.3029.2985.5279.6317.675.9995s.2207.794.2207 1.2786c0 .5971-.1233 1.1293-.3699 1.5966s-.5884.861-1.0255 1.1812c-.437.3202-.9497.5625-1.5381.7269s-1.2288.2466-1.9211.2466c-1.3413 0-2.4706-.2812-3.3878-.8437v-1.8563z"/><path d="m352.2162 83.0218c-.3202 0-.5971-.1125-.8307-.3375s-.3505-.5106-.3505-.8567c0-.3375.1168-.6166.3505-.8372s.5106-.331.8307-.331c.1644 0 .3202.0281.4673.0844s.2747.1363.3829.2401.1947.2272.2596.3699c.0649.1428.0974.3007.0974.4738 0 .1644-.0303.3202-.0909.4673-.0605.1471-.1471.2747-.2596.3829s-.2401.1925-.3829.2531-.3007.0909-.4738.0909zm-.8178 16.6537v-13.2918h1.6615v13.2918z"/><path d="m362.0812 99.6755h-1.5836l-5.0883-13.2918h1.8302l3.6734 10.1246c.225.6144.3678 1.1552.4283 1.6225h.0519c.1039-.6231.238-1.1466.4024-1.5706l3.8032-10.1765h1.7783z"/><path d="m370.3626 93.3281c.0087.8134.1168 1.5447.3245 2.1937s.5062 1.1985.8956 1.6485.8632.794 1.4213 1.0319c.5582.238 1.1877.357 1.8886.357 1.4971 0 2.9119-.5235 4.2445-1.5706v1.6355c-1.2721.9086-2.8124 1.3629-4.621 1.3629-.8913 0-1.7004-.1558-2.4273-.4673s-1.3456-.7637-1.8562-1.3564-.9043-1.3218-1.1812-2.1872-.4154-1.8519-.4154-2.9595c0-.9952.1515-1.9168.4543-2.7648.3029-.848.7226-1.5814 1.2591-2.2002.5365-.6187 1.1725-1.1033 1.9081-1.4538.7355-.3505 1.5403-.5257 2.4143-.5257.8567 0 1.6139.1493 2.2715.4478.6577.2985 1.2094.7247 1.655 1.2786s.7853 1.2288 1.019 2.0249c.2336.7961.3505 1.6874.3505 2.6739v.8307h-9.6052zm7.892-1.4537c-.0259-1.3846-.3548-2.4576-.9865-3.2191s-1.51-1.1423-2.635-1.1423c-.5625 0-1.0838.0995-1.5641.2985s-.9021.4868-1.2656.8632-.6642.8351-.9021 1.3759c-.238.5408-.4046 1.1488-.4998 1.8237h7.8531z"/></g></svg>